<svg width="372" height="414" viewBox="0 0 372 414" fill="none" xmlns="http://www.w3.org/2000/svg">
<path fill-rule="evenodd" clip-rule="evenodd" d="M326.976 305C330.206 305 332.082 308.618 330.128 311.19C296.98 354.824 244.538 383 185.514 383C126.49 383 74.0471 354.824 40.8994 311.19C38.9454 308.618 40.8216 305 44.0518 305H326.976ZM52.501 313C84.4172 351.486 132.595 376 186.5 376C240.405 376 288.583 351.486 320.499 313H52.501Z" fill="white"/>
<path fill-rule="evenodd" clip-rule="evenodd" d="M326.976 305C330.206 305 332.082 308.618 330.128 311.19C296.98 354.824 244.538 383 185.514 383C126.49 383 74.0471 354.824 40.8994 311.19C38.9454 308.618 40.8216 305 44.0518 305H326.976ZM52.501 313C84.4172 351.486 132.595 376 186.5 376C240.405 376 288.583 351.486 320.499 313H52.501Z" fill="white"/>
<path d="M100.5 238C112.374 238 122 247.626 122 259.5C122 271.374 112.374 281 100.5 281C88.6259 281 79 271.374 79 259.5C79 247.626 88.6259 238 100.5 238Z" fill="white"/>
<path d="M100.5 238C112.374 238 122 247.626 122 259.5C122 271.374 112.374 281 100.5 281C88.6259 281 79 271.374 79 259.5C79 247.626 88.6259 238 100.5 238Z" fill="white"/>
<path d="M271.5 238C283.374 238 293 247.626 293 259.5C293 271.374 283.374 281 271.5 281C259.626 281 250 271.374 250 259.5C250 247.626 259.626 238 271.5 238Z" fill="white"/>
<path d="M271.5 238C283.374 238 293 247.626 293 259.5C293 271.374 283.374 281 271.5 281C259.626 281 250 271.374 250 259.5C250 247.626 259.626 238 271.5 238Z" fill="white"/>
<path fill-rule="evenodd" clip-rule="evenodd" d="M276.5 0C323.168 0 361 8.50659 361 19C361 29.4934 323.168 38 276.5 38C268.782 38 261.306 37.7649 254.203 37.3291C274.865 48.5535 288.883 59.4377 298.084 68.7422C308.496 79.2712 312.779 87.8186 313.486 92.5674C349.508 126.488 372 174.616 372 228C372 330.725 288.725 414 186 414C83.275 414 0 330.725 0 228C0 174.659 22.4558 126.565 58.4268 92.6484L58.5049 92.1182C59.1896 87.4798 63.471 79.0986 73.9199 68.7695C83.354 59.4437 97.8515 48.4946 119.382 37.2285C111.809 37.7293 103.794 38 95.5 38C48.8319 38 11 29.4934 11 19C11 8.50659 48.8319 0 95.5 0C128.125 0 156.431 4.15976 170.513 10.2471C174.352 8.25171 179.869 7 186 7C192.131 7 197.647 8.25194 201.486 10.2471C215.567 4.15957 243.874 0 276.5 0ZM210.462 179.61L210.366 179.406L210.253 180.339L202.318 208H11.125C10.3825 214.564 10 221.237 10 228C10 325.202 88.7979 404 186 404C283.202 404 362 325.202 362 228C362 221.237 361.617 214.564 360.875 208H223.777L211.365 181.536L210.638 179L210.462 179.61ZM146.293 34.1846C145.186 34.3721 144.058 34.5532 142.909 34.7285C101.504 52.5447 76.2556 79.5655 68.1484 92H105.641C109.635 79.5626 123.019 52.0536 146.293 34.1846ZM177 27.8945C160.952 33.9047 128.031 54.3419 115.619 92H177V27.8945ZM194 92H256.222C243.421 52.9672 209.573 32.1477 194 26.5312V92ZM227.007 34.3994C249.185 52.4489 262.096 79.3003 266.198 92H303.537C295.298 79.3645 271.101 53.1148 231.835 35.1299C230.187 34.8987 228.577 34.6549 227.007 34.3994Z" fill="white"/>
<path fill-rule="evenodd" clip-rule="evenodd" d="M276.5 0C323.168 0 361 8.50659 361 19C361 29.4934 323.168 38 276.5 38C268.782 38 261.306 37.7649 254.203 37.3291C274.865 48.5535 288.883 59.4377 298.084 68.7422C308.496 79.2712 312.779 87.8186 313.486 92.5674C349.508 126.488 372 174.616 372 228C372 330.725 288.725 414 186 414C83.275 414 0 330.725 0 228C0 174.659 22.4558 126.565 58.4268 92.6484L58.5049 92.1182C59.1896 87.4798 63.471 79.0986 73.9199 68.7695C83.354 59.4437 97.8515 48.4946 119.382 37.2285C111.809 37.7293 103.794 38 95.5 38C48.8319 38 11 29.4934 11 19C11 8.50659 48.8319 0 95.5 0C128.125 0 156.431 4.15976 170.513 10.2471C174.352 8.25171 179.869 7 186 7C192.131 7 197.647 8.25194 201.486 10.2471C215.567 4.15957 243.874 0 276.5 0ZM210.462 179.61L210.366 179.406L210.253 180.339L202.318 208H11.125C10.3825 214.564 10 221.237 10 228C10 325.202 88.7979 404 186 404C283.202 404 362 325.202 362 228C362 221.237 361.617 214.564 360.875 208H223.777L211.365 181.536L210.638 179L210.462 179.61ZM146.293 34.1846C145.186 34.3721 144.058 34.5532 142.909 34.7285C101.504 52.5447 76.2556 79.5655 68.1484 92H105.641C109.635 79.5626 123.019 52.0536 146.293 34.1846ZM177 27.8945C160.952 33.9047 128.031 54.3419 115.619 92H177V27.8945ZM194 92H256.222C243.421 52.9672 209.573 32.1477 194 26.5312V92ZM227.007 34.3994C249.185 52.4489 262.096 79.3003 266.198 92H303.537C295.298 79.3645 271.101 53.1148 231.835 35.1299C230.187 34.8987 228.577 34.6549 227.007 34.3994Z" fill="white"/>
</svg>
